<svg width="29" height="29" viewBox="0 0 29 29" fill="none" xmlns="http://www.w3.org/2000/svg">
<path d="M18.4153 5.56641C21.7199 5.56653 24.3996 8.09828 24.3997 11.4023C24.3997 13.3982 23.4605 15.1128 22.0784 16.751C20.7081 18.3751 18.77 20.0756 16.554 22.0225L16.553 22.0215L15.2942 23.1328L14.5002 23.833L13.7063 23.1328L12.4465 22.0225L10.8411 20.6055C9.29689 19.2299 7.94977 17.969 6.92212 16.751C5.54 15.1128 4.59985 13.3983 4.59985 11.4023C4.59988 8.0982 7.28045 5.56641 10.5852 5.56641C12.0197 5.56644 13.4031 6.06257 14.4993 6.89453C15.5956 6.06209 16.9803 5.56641 18.4153 5.56641Z" stroke="white" stroke-width="2.4"/>
</svg>
